<?xml version="1.0" encoding="UTF-8" standalone="no"?>
<!-- Created with Inkscape (http://www.inkscape.org/) -->

<svg
   version="1.1"
   id="svg1334"
   width="24"
   height="24"
   viewBox="0 0 24 24"
   sodipodi:docname="cmdBypass24.svg"
   inkscape:version="1.1.1 (3bf5ae0d25, 2021-09-20)"
   xmlns:inkscape="http://www.inkscape.org/namespaces/inkscape"
   xmlns:sodipodi="http://sodipodi.sourceforge.net/DTD/sodipodi-0.dtd"
   xmlns="http://www.w3.org/2000/svg"
   xmlns:svg="http://www.w3.org/2000/svg">
  <defs
     id="defs1338" />
  <sodipodi:namedview
     id="namedview1336"
     pagecolor="#ffffff"
     bordercolor="#111111"
     borderopacity="1"
     inkscape:pageshadow="0"
     inkscape:pageopacity="0"
     inkscape:pagecheckerboard="1"
     showgrid="false"
     inkscape:zoom="17.432188"
     inkscape:cx="2.7248444"
     inkscape:cy="9.0350105"
     inkscape:window-width="1920"
     inkscape:window-height="1017"
     inkscape:window-x="3832"
     inkscape:window-y="-8"
     inkscape:window-maximized="1"
     inkscape:current-layer="g1340"
     width="500px" />
  <g
     inkscape:groupmode="layer"
     inkscape:label="Image"
     id="g1340">
    <g
       id="g1809"
       transform="matrix(0.00976958,0,0,0.00976958,-6.5600789,-6.2368197)"
       style="fill:none;stroke:#dc6914;stroke-width:97.6751;stroke-miterlimit:4;stroke-dasharray:none;stroke-opacity:1">
      <path
         id="path1811"
         d="m 1058.88,3038.2721 c -72.02468,-4.964 -130.72785,-61.2448 -138.52298,-132.8068 -0.95085,-8.7286 -0.9529,-1195.4553 0,-1204.2105 6.65427,-61.276 51.488,-113.2215 110.84068,-128.4226 18.6281,-4.7709 9.7403,-4.4499 129.2844,-4.6684 l 107.36,-0.1961 0.01,-142.8638 c 0.01,-141.919 0.2103,-158.3567 2.272,-182.8639 8.3975,-99.8179 42.0201,-196.1184 97.76,-279.99997 6.8631,-10.32813 9.3488,-13.84032 19.2501,-27.2 43.6531,-58.90029 100.4403,-110.93998 164.2419,-150.51086 10.8508,-6.72992 15.9097,-9.70752 27.51,-16.19193 9.0944,-5.08365 40.0225,-20.1442 51.085,-24.87591 66.0916,-28.26918 131.842,-43.60307 205.1474,-47.84307 16.8396,-0.97402 62.6393,-0.40448 78.4876,0.97606 78.9922,6.88083 147.4159,25.62983 216,59.18676 48.0854,23.52729 90.6398,51.95385 132.7706,88.69133 26.2484,22.88832 52.4785,50.84019 77.5551,82.64608 14.0339,17.79994 33.0811,46.2496 45.7951,68.40154 49.791,86.75217 76.3291,181.44617 79.322,283.03997 l 0.4384,14.88 H 2352.8442 2240.201 l -0.4334,-11.68 c -2.6067,-70.2426 -23.0923,-135.0885 -60.9076,-192.8 -6.9223,-10.5645 -15.2665,-21.8778 -24.3096,-32.96 -8.6172,-10.5602 -13.2574,-15.6224 -25.226,-27.52 -56.3171,-55.98301 -128.7035,-92.36893 -207.3983,-104.25124 -17.0674,-2.57702 -27.6197,-3.3655 -49.6,-3.70598 -24.1598,-0.37428 -38.297,0.43449 -58.56,3.34995 -80.0393,11.51616 -153.1537,47.94048 -209.9574,104.59727 -15.771,15.7302 -22.6268,23.522 -34.9222,39.69 -37.7411,49.6284 -62.916,109.3895 -71.8499,170.56 -3.7711,25.8208 -3.5227,13.9835 -3.7436,178.3966 l -0.2028,150.8766 593.778,0.1649 593.7779,0.165 7.68,1.4133 c 31.7817,5.849 57.1414,18.5995 79.1852,39.8131 27.9452,26.8928 43.3132,59.8297 45.9564,98.4945 1.0713,15.6702 0.5369,1193.0328 -0.5444,1199.4761 -2.8823,17.1749 -5.7995,27.8281 -10.9782,40.0903 -7.4585,17.6604 -17.601,32.5578 -31.9963,46.9966 -12.0841,12.1207 -24.6275,21.1693 -39.3827,28.4104 -14.303,7.0192 -28.0468,11.3699 -44.8,14.182 -6.8177,1.1444 -32.5656,1.1834 -815.36,1.2374 -444.576,0.031 -809.76,-0.043 -811.52,-0.1647 z m 1005.7601,-302.1813 c 0,-0.3022 -2.6107,-7.5742 -5.8016,-16.16 -3.1909,-8.5859 -7.7735,-20.9387 -10.1837,-27.4507 -2.4103,-6.512 -8.8872,-23.936 -14.3933,-38.72 -5.5061,-14.784 -13.8661,-37.248 -18.5779,-49.92 -4.7118,-12.672 -12.6411,-33.984 -17.6206,-47.36 -4.9795,-13.376 -15.205,-40.88 -22.7233,-61.12 -7.5183,-20.24 -18.8618,-50.7517 -25.2078,-67.8036 -6.3459,-17.0519 -11.4737,-31.0393 -11.395,-31.0831 0.079,-0.043 4.0312,-1.3131 8.7832,-2.8207 23.5665,-7.4768 45.5094,-17.9422 66.88,-31.8978 9.9546,-6.5007 23.4576,-16.7495 30.1379,-22.8748 10.0896,-9.2514 14.1375,-13.2397 20.3134,-20.0143 39.1254,-42.9188 62.0381,-93.0431 68.927,-150.7863 1.8457,-15.4713 1.8406,-43.0839 -0.011,-59.0949 -4.1978,-36.2991 -15.7809,-71.8725 -33.6246,-103.266 -5.5084,-9.6912 -16.3057,-25.5626 -23.2173,-34.128 -8.4288,-10.4457 -9.9725,-12.1598 -20.2792,-22.5195 -43.2126,-43.4344 -97.6291,-69.7394 -160.3262,-77.5019 -11.1145,-1.3761 -44.5952,-1.5653 -56.32,-0.3183 -44.629,4.7466 -84.2014,18.8728 -121.3923,43.3335 -21.3284,14.0278 -35.9981,26.9909 -56.8268,50.2157 -7.4387,8.2944 -22.7635,30.3345 -29.5926,42.56 -17.3289,31.0221 -28.0893,64.2728 -32.6202,100.8 -1.6394,13.2164 -1.6394,47.5835 0,60.8 5.7686,46.5051 21.4164,87.1002 47.9821,124.48 24.7721,34.856 59.7609,64.6727 98.8568,84.2435 10.8204,5.4166 28.8567,12.7685 39.033,15.9104 3.608,1.114 6.56,2.25 6.56,2.5245 0,0.2745 -1.5663,4.6441 -3.4807,9.7103 -1.9143,5.0662 -7.6464,20.4433 -12.7379,34.1713 -5.0915,13.728 -12.4304,33.456 -16.3087,43.84 -3.8782,10.384 -13.5288,36.304 -21.4456,57.6 -7.9169,21.296 -17.5582,47.216 -21.4252,57.6 -38.8689,104.3735 -50.6819,136.2795 -50.6819,136.8871 0,0.5223 53.2867,0.7129 199.36,0.7129 110.5391,0 199.36,-0.2448 199.36,-0.5493 z M 957.99836,2989.6001 c -0.79603,-1.0151 -0.77344,-1.0377 0.24167,-0.2417 0.616,0.4832 1.12,0.9872 1.12,1.12 0,0.5268 -0.52557,0.1877 -1.36167,-0.8783 z m 717.82454,-662.72 -4.4629,-4.64 4.64,4.4628 c 4.3097,4.1451 4.9323,4.8172 4.4629,4.8172 -0.098,0 -2.1855,-2.088 -4.64,-4.64 z m 380.8172,0.16 c 2.4451,-2.464 4.5897,-4.48 4.7657,-4.48 0.176,0 -1.6806,2.016 -4.1257,4.48 -2.4452,2.464 -4.5897,4.48 -4.7657,4.48 -0.176,0 1.6805,-2.016 4.1257,-4.48 z m 10.56,-11.1217 c 0,-0.1329 0.504,-0.6369 1.12,-1.12 1.0151,-0.796 1.0377,-0.7734 0.2416,0.2417 -0.8361,1.066 -1.3616,1.4051 -1.3616,0.8783 z m -5.5008,-361.5183 -1.2192,-1.44 1.44,1.2192 c 0.792,0.6705 1.44,1.3185 1.44,1.44 0,0.5121 -0.5151,0.134 -1.6608,-1.2192 z m -391.2993,0.5997 c 0,-0.1101 0.936,-1.0461 2.08,-2.08 l 2.08,-1.8797 -1.8797,2.08 c -1.7522,1.9388 -2.2803,2.3742 -2.2803,1.8797 z m 8.96,-8.96 c 0,-0.1101 0.936,-1.0461 2.08,-2.08 l 2.08,-1.8797 -1.8797,2.08 c -1.7522,1.9388 -2.2803,2.3742 -2.2803,1.8797 z m 371.1516,-2.8397 -1.5515,-1.76 1.76,1.5515 c 1.6449,1.4502 2.0535,1.9685 1.5515,1.9685 -0.1146,0 -0.9066,-0.792 -1.76,-1.76 z M 952.32003,1623.4384 c 0,-0.1329 0.504,-0.6369 1.12,-1.12 1.0151,-0.7961 1.03769,-0.7735 0.24166,0.2416 -0.8361,1.0661 -1.36166,1.4052 -1.36166,0.8784 z M 2769.58,1611.36 l -3.8199,-4 4,3.82 c 3.7156,3.5484 4.2928,4.18 3.8199,4.18 -0.099,0 -1.899,-1.8 -4,-4 z m -620.5416,-561.6 c -0.796,-1.0151 -0.7734,-1.0377 0.2417,-0.2416 1.066,0.8361 1.4051,1.3616 0.8783,1.3616 -0.1329,0 -0.6369,-0.504 -1.12,-1.12 z M 1587.2,1045.5184 c 0,-0.1329 0.504,-0.6369 1.12,-1.12 1.0151,-0.7961 1.0377,-0.7735 0.2417,0.2416 -0.8361,1.0661 -1.3617,1.4051 -1.3617,0.8784 z M 2143.9184,1044 c -0.796,-1.0151 -0.7734,-1.0377 0.2417,-0.2416 1.066,0.8361 1.4051,1.3616 0.8783,1.3616 -0.1329,0 -0.6369,-0.504 -1.12,-1.12 z M 1593.6,1038.5198 c 0,-0.1102 0.936,-1.0462 2.08,-2.08 l 2.08,-1.8798 -1.8797,2.08 c -1.7522,1.9389 -2.2803,2.3742 -2.2803,1.8798 z m 541.7198,-3.7998 -1.8797,-2.08 2.08,1.8798 c 1.144,1.0338 2.08,1.9698 2.08,2.08 0,0.4944 -0.5281,0.059 -2.2803,-1.8798 z m -10.5542,-10.56 -2.2055,-2.4 2.4,2.2056 c 2.2338,2.0529 2.6942,2.5944 2.2055,2.5944 -0.1069,0 -1.1869,-1.08 -2.4,-2.4 z m -515.8056,-1.12 c 0.8267,-0.88 1.6471,-1.6 1.8231,-1.6 0.176,0 -0.3564,0.72 -1.1831,1.6 -0.8266,0.88 -1.6471,1.6 -1.8231,1.6 -0.176,0 0.3565,-0.72 1.1831,-1.6 z m 8.32,-7.6016 c 0,-0.1329 0.504,-0.6369 1.12,-1.12 1.0151,-0.7961 1.0377,-0.7735 0.2417,0.2416 -0.8361,1.0661 -1.3617,1.4051 -1.3617,0.8784 z M 1422.72,891.27836 c 0,-0.13286 0.504,-0.63686 1.12,-1.12 1.0151,-0.79603 1.0377,-0.77344 0.2417,0.24166 -0.8361,1.06605 -1.3617,1.40512 -1.3617,0.87834 z m 884.3984,-2.79834 c -0.796,-1.0151 -0.7734,-1.03769 0.2417,-0.24166 1.066,0.8361 1.4051,1.36166 0.8783,1.36166 -0.1329,0 -0.6369,-0.504 -1.12,-1.12 z m -875.4384,-6.88 c 0.8267,-0.88 1.6471,-1.6 1.8231,-1.6 0.176,0 -0.3564,0.72 -1.1831,1.6 -0.8266,0.88 -1.6471,1.6 -1.8231,1.6 -0.176,0 0.3565,-0.72 1.1831,-1.6 z m 865.2456,-4 -2.2055,-2.4 2.4,2.20557 c 1.32,1.21306 2.4,2.29306 2.4,2.4 0,0.48871 -0.5416,0.0282 -2.5945,-2.20557 z m -14.72,-14.72 -2.2055,-2.4 2.4,2.20557 c 1.32,1.21306 2.4,2.29306 2.4,2.4 0,0.48871 -0.5416,0.0282 -2.5945,-2.20557 z m -828.1256,-3.68 c 0.8267,-0.88 1.6471,-1.6 1.8231,-1.6 0.176,0 -0.3564,0.72 -1.1831,1.6 -0.8266,0.88 -1.6471,1.6 -1.8231,1.6 -0.176,0 0.3565,-0.72 1.1831,-1.6 z m 8.32,-7.60166 c 0,-0.13287 0.504,-0.63687 1.12,-1.12 1.0151,-0.79603 1.0377,-0.77344 0.2417,0.24166 -0.8361,1.06605 -1.3617,1.40512 -1.3617,0.87834 z M 1059.68,3038.2962 c 0.44,-0.1775 1.16,-0.1775 1.6,0 0.44,0.1775 0.08,0.3228 -0.8,0.3228 -0.88,0 -1.24,-0.1453 -0.8,-0.3228 z m 1612.8001,0 c 0.44,-0.1775 1.16,-0.1775 1.6,0 0.44,0.1775 0.08,0.3228 -0.8,0.3228 -0.88,0 -1.24,-0.1453 -0.8,-0.3228 z m 141.0847,-141.9761 c 0.013,-1.056 0.1565,-1.4105 0.3188,-0.7879 0.1622,0.6228 0.1516,1.4868 -0.024,1.92 -0.1753,0.4334 -0.308,-0.076 -0.295,-1.1321 z m -1894.20618,-592.96 c 0,-324.368 0.0726,-457.0641 0.1614,-294.88 0.0888,162.184 0.0888,427.576 0,589.76 -0.0888,162.184 -0.1614,29.488 -0.1614,-294.88 z m 845.86958,432.8 c 54.7955,-0.09 144.6515,-0.09 199.68,0 55.0286,0.09 10.1959,0.164 -99.6282,0.164 -109.824,0 -154.8473,-0.074 -100.0518,-0.164 z m -166.4577,-573.9734 c 0.031,-0.7456 0.1824,-0.8972 0.3867,-0.3866 0.1849,0.462 0.1622,1.014 -0.051,1.2266 -0.2127,0.2127 -0.364,-0.1653 -0.3362,-0.84 z m 535.7306,-6.0266 c 0,-0.88 0.1453,-1.24 0.3228,-0.8 0.1776,0.44 0.1776,1.16 0,1.6 -0.1775,0.44 -0.3228,0.08 -0.3228,-0.8 z m -536.32,-3.2 c 0,-0.88 0.1453,-1.24 0.3228,-0.8 0.1776,0.44 0.1776,1.16 0,1.6 -0.1775,0.44 -0.3228,0.08 -0.3228,-0.8 z m 537.0333,-14.08 c 0,-1.584 0.1248,-2.232 0.2773,-1.44 0.1526,0.792 0.1526,2.088 0,2.88 -0.1525,0.792 -0.2773,0.144 -0.2773,-1.44 z m -537.0333,-14.72 c 0,-0.88 0.1453,-1.24 0.3228,-0.8 0.1776,0.44 0.1776,1.16 0,1.6 -0.1775,0.44 -0.3228,0.08 -0.3228,-0.8 z m 536.2695,-2.9334 c 0.031,-0.7456 0.1824,-0.8972 0.3866,-0.3866 0.1849,0.462 0.1622,1.014 -0.05,1.2266 -0.2127,0.2127 -0.364,-0.1653 -0.3362,-0.84 z M 1843.72,1870.9229 c 0.4621,-0.1849 1.0141,-0.1622 1.2267,0.051 0.2127,0.2127 -0.1653,0.364 -0.84,0.3362 -0.7456,-0.031 -0.8972,-0.1824 -0.3867,-0.3867 z m 44.8001,0 c 0.462,-0.1849 1.014,-0.1622 1.2266,0.051 0.2127,0.2127 -0.1653,0.364 -0.84,0.3362 -0.7456,-0.031 -0.8972,-0.1824 -0.3866,-0.3867 z m -35.5479,-0.6464 c 0.6227,-0.1622 1.4867,-0.1516 1.92,0.024 0.4334,0.1753 -0.076,0.308 -1.1322,0.2951 -1.056,-0.013 -1.4104,-0.1565 -0.7878,-0.3188 z m 25.2679,0.02 c 0.44,-0.1776 1.16,-0.1776 1.6,0 0.44,0.1775 0.08,0.3228 -0.8,0.3228 -0.88,0 -1.24,-0.1453 -0.8,-0.3228 z M 2813.5648,1710.4 c 0.013,-1.056 0.1565,-1.4105 0.3188,-0.7878 0.1622,0.6227 0.1516,1.4867 -0.024,1.92 -0.1753,0.4333 -0.308,-0.076 -0.295,-1.1322 z M 1056.52,1568.2029 c 0.462,-0.1849 1.014,-0.1622 1.2267,0.051 0.2127,0.2127 -0.1654,0.364 -0.84,0.3362 -0.7456,-0.031 -0.8972,-0.1824 -0.3867,-0.3867 z M 2239.5215,1282.24 c 0.01,-1.408 0.1381,-1.9086 0.2912,-1.1125 0.1531,0.7961 0.1473,1.9481 -0.013,2.56 -0.1602,0.6119 -0.2854,-0.04 -0.2783,-1.4475 z m -746.2767,-6.4 c 0.013,-1.056 0.1565,-1.4105 0.3188,-0.7878 0.1622,0.6227 0.1516,1.4867 -0.024,1.92 -0.1753,0.4333 -0.3081,-0.076 -0.2951,-1.1322 z m -225.2434,-1.92 c 0.01,-1.408 0.1382,-1.9086 0.2913,-1.1125 0.1531,0.7961 0.1473,1.9481 -0.013,2.56 -0.1602,0.6119 -0.2854,-0.04 -0.2783,-1.4475 z m 1196.7871,-1.6 c 0,-1.232 0.1318,-1.736 0.2927,-1.12 0.161,0.616 0.161,1.624 0,2.24 -0.1609,0.616 -0.2927,0.112 -0.2927,-1.12 z m -226.0179,-3.5733 c 0.031,-0.7456 0.1824,-0.8972 0.3866,-0.3867 0.1849,0.462 0.1622,1.0141 -0.051,1.2267 -0.2127,0.2127 -0.364,-0.1654 -0.3362,-0.84 z m -744.9601,-3.2 c 0.031,-0.7456 0.1824,-0.8972 0.3867,-0.3867 0.1849,0.462 0.1622,1.014 -0.051,1.2267 -0.2127,0.2127 -0.364,-0.1654 -0.3362,-0.84 z m 744.3201,-5.12 c 0.031,-0.7456 0.1824,-0.8972 0.3866,-0.3867 0.1849,0.462 0.1622,1.014 -0.05,1.2267 -0.2127,0.2127 -0.364,-0.1654 -0.3362,-0.84 z m -969.5495,-0.9067 c 0,-0.88 0.1453,-1.24 0.3228,-0.8 0.1775,0.44 0.1775,1.16 0,1.6 -0.1775,0.44 -0.3228,0.08 -0.3228,-0.8 z m 1195.52,-0.64 c 0,-0.88 0.1453,-1.24 0.3228,-0.8 0.1776,0.44 0.1776,1.16 0,1.6 -0.1775,0.44 -0.3228,0.08 -0.3228,-0.8 z m -1194.9306,-9.3333 c 0.031,-0.7456 0.1824,-0.8972 0.3867,-0.3867 0.1849,0.462 0.1622,1.014 -0.051,1.2267 -0.2127,0.2127 -0.364,-0.1654 -0.3362,-0.84 z m 1194.2401,-0.64 c 0.031,-0.7456 0.1824,-0.8972 0.3866,-0.3867 0.1849,0.462 0.1622,1.014 -0.05,1.2267 -0.2127,0.2127 -0.364,-0.1654 -0.3362,-0.84 z m -1193.6001,-7.68 c 0.031,-0.7456 0.1824,-0.8972 0.3867,-0.3867 0.1849,0.462 0.1622,1.014 -0.051,1.2267 -0.2127,0.2127 -0.364,-0.1654 -0.3362,-0.84 z M 1837.32,921.16284 c 0.4621,-0.1849 1.0141,-0.16218 1.2267,0.0506 0.2127,0.21267 -0.1653,0.36397 -0.84,0.33619 -0.7456,-0.0307 -0.8972,-0.1824 -0.3867,-0.38669 z m 57.6001,0 c 0.462,-0.1849 1.014,-0.16218 1.2266,0.0506 0.2127,0.21267 -0.1653,0.36397 -0.84,0.33619 -0.7456,-0.0307 -0.8972,-0.1824 -0.3866,-0.38669 z m -48.0401,-0.62669 c 0.44,-0.17753 1.16,-0.17753 1.6,0 0.44,0.17754 0.08,0.32282 -0.8,0.32282 -0.88,0 -1.24,-0.14528 -0.8,-0.32282 z m 37.7601,0 c 0.44,-0.17753 1.16,-0.17753 1.6,0 0.44,0.17754 0.08,0.32282 -0.8,0.32282 -0.88,0 -1.24,-0.14528 -0.8,-0.32282 z M 1817.48,696.52283 c 0.4621,-0.18489 1.0141,-0.16217 1.2267,0.0506 0.2127,0.21268 -0.1653,0.36397 -0.84,0.3362 -0.7456,-0.0307 -0.8972,-0.1824 -0.3867,-0.38669 z m 8.96,-0.64 c 0.4621,-0.18489 1.0141,-0.16217 1.2267,0.0506 0.2127,0.21268 -0.1653,0.36397 -0.84,0.3362 -0.7456,-0.0307 -0.8972,-0.1824 -0.3867,-0.38669 z m 79.3601,0 c 0.462,-0.18489 1.014,-0.16217 1.2266,0.0506 0.2127,0.21268 -0.1653,0.36397 -0.84,0.3362 -0.7456,-0.0307 -0.8972,-0.1824 -0.3866,-0.38669 z m -68.1879,-0.64633 c 0.6227,-0.16224 1.4867,-0.15162 1.92,0.0237 0.4334,0.17529 -0.076,0.30803 -1.1322,0.29504 -1.056,-0.0128 -1.4104,-0.15648 -0.7878,-0.31879 z m 56.32,0 c 0.6227,-0.16224 1.4867,-0.15162 1.92,0.0237 0.4334,0.17529 -0.076,0.30803 -1.1321,0.29504 -1.056,-0.0128 -1.4105,-0.15648 -0.7879,-0.31879 z m -33.3245,-0.67251 c 3.0622,-0.11706 8.2462,-0.11764 11.52,0 3.2738,0.11635 0.7684,0.21216 -5.5676,0.2128 -6.3361,0 -9.0146,-0.0945 -5.9524,-0.21159 z m 909.2856,2300.47611 c 2.6522,-2.8257 3.2268,-3.3338 3.2268,-2.8533 0,0.1028 -1.368,1.4708 -3.04,3.04 l -3.04,2.8533 z m -713.9133,-1046.4 -3.8199,-4 4,3.8199 c 3.7156,3.5484 4.2928,4.1801 3.8199,4.1801 -0.099,0 -1.899,-1.8 -4,-4 z m -379.5,0.16 c 1.3749,-1.408 2.6438,-2.56 2.8198,-2.56 0.176,0 -0.8049,1.152 -2.1798,2.56 -1.3748,1.408 -2.6437,2.56 -2.8197,2.56 -0.176,0 0.8049,-1.152 2.1797,-2.56 z M 962.88003,1611.52 c 1.37484,-1.408 2.64377,-2.56 2.81977,-2.56 0.176,0 -0.80493,1.152 -2.17977,2.56 -1.37485,1.408 -2.64378,2.56 -2.81978,2.56 -0.176,0 0.80493,-1.152 2.17978,-2.56 z M 1602.24,1029.76 c 2.7995,-2.816 5.234,-5.12 5.41,-5.12 0.176,0 -1.9705,2.304 -4.77,5.12 -2.7994,2.816 -5.2339,5.12 -5.4099,5.12 -0.176,0 1.9705,-2.304 4.7699,-5.12 z m 527.6801,-0.32 c -1.5546,-1.584 -2.6825,-2.88 -2.5065,-2.88 0.176,0 1.5919,1.296 3.1465,2.88 1.5545,1.584 2.6825,2.88 2.5065,2.88 -0.176,0 -1.592,-1.296 -3.1465,-2.88 z m 179.1183,-139.03998 c -0.796,-1.0151 -0.7734,-1.03769 0.2417,-0.24166 1.066,0.8361 1.4051,1.36166 0.8783,1.36166 -0.1329,0 -0.6369,-0.504 -1.12,-1.12 z m -880.2384,-5.92 c 0.6372,-0.704 1.3024,-1.28 1.4784,-1.28 0.176,0 -0.2012,0.576 -0.8384,1.28 -0.6371,0.704 -1.3024,1.28 -1.4784,1.28 -0.176,0 0.2013,-0.576 0.8384,-1.28 z m 871.6193,-3.36 -1.2192,-1.44 1.44,1.2192 c 0.792,0.67053 1.44,1.31853 1.44,1.44 0,0.51213 -0.5151,0.13402 -1.6608,-1.2192 z m -22.4,-22.4 -1.2192,-1.44 1.44,1.2192 c 0.792,0.67053 1.44,1.31853 1.44,1.44 0,0.51213 -0.5151,0.13402 -1.6608,-1.2192 z M 1456.64,856.71836 c 0,-0.13287 0.504,-0.63687 1.12,-1.12 1.0151,-0.79603 1.0377,-0.77344 0.2417,0.24166 -0.8361,1.06605 -1.3617,1.40512 -1.3617,0.87834 z M 1057.16,3038.2829 c 0.462,-0.1849 1.014,-0.1622 1.2267,0.051 0.2127,0.2126 -0.1654,0.3639 -0.84,0.3361 -0.7456,-0.031 -0.8972,-0.1824 -0.3867,-0.3866 z m 1617.9201,0 c 0.462,-0.1849 1.014,-0.1622 1.2267,0.051 0.2126,0.2126 -0.1654,0.3639 -0.84,0.3361 -0.7456,-0.031 -0.8973,-0.1824 -0.3867,-0.3866 z m 138.461,-139.0828 c 0,-0.88 0.1453,-1.24 0.3228,-0.8 0.1776,0.44 0.1776,1.16 0,1.6 -0.1775,0.44 -0.3228,0.08 -0.3228,-0.8 z m -1894.33967,-4.16 c 0.007,-1.408 0.13818,-1.9087 0.29127,-1.1125 0.15308,0.7961 0.14726,1.9481 -0.0128,2.56 -0.1602,0.6118 -0.28544,-0.04 -0.27834,-1.4475 z m 679.56907,-734.7734 c 0.031,-0.7456 0.1824,-0.8972 0.3867,-0.3866 0.1849,0.462 0.1622,1.014 -0.051,1.2266 -0.2127,0.2127 -0.364,-0.1653 -0.3362,-0.84 z m 535.7306,-6.6666 c 0,-0.88 0.1453,-1.24 0.3228,-0.8 0.1776,0.44 0.1776,1.16 0,1.6 -0.1775,0.44 -0.3228,0.08 -0.3228,-0.8 z m -536.2726,-3.84 c 0,-1.232 0.1317,-1.736 0.2927,-1.12 0.161,0.616 0.161,1.624 0,2.24 -0.161,0.616 -0.2927,0.112 -0.2927,-1.12 z m -0.024,-22.08 c 0.013,-1.056 0.1565,-1.4105 0.3188,-0.7879 0.1623,0.6227 0.1516,1.4867 -0.024,1.92 -0.1752,0.4334 -0.308,-0.076 -0.295,-1.1321 z m 536.2964,-3.52 c 0,-0.88 0.1453,-1.24 0.3228,-0.8 0.1775,0.44 0.1775,1.16 0,1.6 -0.1775,0.44 -0.3228,0.08 -0.3228,-0.8 z m -0.6906,-9.3334 c 0.031,-0.7456 0.1824,-0.8972 0.3867,-0.3866 0.1849,0.462 0.1622,1.014 -0.051,1.2266 -0.2126,0.2127 -0.3639,-0.1653 -0.3361,-0.84 z m -288.1705,-243.9038 c 0.462,-0.1849 1.014,-0.1622 1.2267,0.051 0.2127,0.2127 -0.1654,0.364 -0.84,0.3362 -0.7456,-0.031 -0.8972,-0.1824 -0.3867,-0.3867 z m 40.96,0 c 0.462,-0.1849 1.014,-0.1622 1.2267,0.051 0.2127,0.2127 -0.1654,0.364 -0.84,0.3362 -0.7456,-0.031 -0.8972,-0.1824 -0.3867,-0.3867 z m -29.4725,-0.6555 c 0.7961,-0.1531 1.9481,-0.1473 2.56,0.013 0.6118,0.1602 -0.04,0.2854 -1.4475,0.2783 -1.408,-0.01 -1.9087,-0.1382 -1.1125,-0.2912 z m 16.64,0 c 0.7961,-0.1531 1.9481,-0.1473 2.56,0.013 0.6118,0.1602 -0.04,0.2854 -1.4475,0.2783 -1.408,-0.01 -1.9087,-0.1382 -1.1125,-0.2912 z M 919.20143,1711.68 c 0.007,-1.408 0.13818,-1.9086 0.29127,-1.1125 0.15308,0.7961 0.14726,1.9481 -0.0128,2.56 -0.1602,0.6119 -0.28544,-0.04 -0.27834,-1.4475 z m 1894.28917,-4.5333 c 0.031,-0.7456 0.1824,-0.8972 0.3867,-0.3867 0.1849,0.4621 0.1621,1.0141 -0.051,1.2267 -0.2127,0.2127 -0.364,-0.1653 -0.3362,-0.84 z M 1115.0905,1567.5201 c 28.0997,-0.092 73.8917,-0.092 101.76,0 27.8682,0.092 4.8775,0.1677 -51.0905,0.1677 -55.968,0 -78.7693,-0.075 -50.6695,-0.1677 z m 672.0023,-10e-5 c 161.8611,-0.089 426.5331,-0.089 588.1601,0 161.6269,0.089 29.1952,0.1614 -294.2928,0.1614 -323.4881,0 -455.7283,-0.073 -293.8673,-0.1614 z m 452.5326,-274.3116 c -0.184,-0.4795 -0.2294,-2.5675 -0.1009,-4.64 l 0.2335,-3.7684 0.121,4.3182 0.1211,4.3183 112.8,0.1635 112.8,0.1636 -112.8201,0.1582 c -94.7199,0.1328 -112.8738,0.019 -113.1546,-0.7134 z M 1493.2685,1279.36 c 0,-1.232 0.1317,-1.736 0.2927,-1.12 0.161,0.616 0.161,1.624 0,2.24 -0.161,0.616 -0.2927,0.112 -0.2927,-1.12 z m 745.5021,-8.0533 c 0.031,-0.7456 0.1824,-0.8972 0.3866,-0.3867 0.1849,0.4621 0.1622,1.0141 -0.051,1.2267 -0.2127,0.2127 -0.364,-0.1654 -0.3362,-0.84 z m -970.8058,-1.8667 c 0.013,-1.056 0.1564,-1.4105 0.3188,-0.7878 0.1622,0.6227 0.1516,1.4867 -0.024,1.92 -0.1753,0.4333 -0.3081,-0.076 -0.2951,-1.1322 z m 1196.8,-1.28 c 0.013,-1.056 0.1565,-1.4105 0.3188,-0.7878 0.1622,0.6227 0.1516,1.4867 -0.024,1.92 -0.1753,0.4333 -0.308,-0.076 -0.295,-1.1322 z m -970.9543,-0.6933 c 0.031,-0.7456 0.1824,-0.8972 0.3867,-0.3867 0.1849,0.462 0.1622,1.014 -0.051,1.2267 -0.2127,0.2127 -0.364,-0.1654 -0.3362,-0.84 z m 744.3201,-5.12 c 0.031,-0.7456 0.1824,-0.8972 0.3866,-0.3867 0.1849,0.462 0.1622,1.014 -0.05,1.2267 -0.2127,0.2127 -0.364,-0.1654 -0.3362,-0.84 z m -743.6801,-2.56 c 0.031,-0.7456 0.1824,-0.8972 0.3867,-0.3867 0.1849,0.462 0.1622,1.014 -0.05,1.2267 -0.2127,0.2127 -0.364,-0.1654 -0.3362,-0.84 z m -225.92,-3.2 c 0.031,-0.7456 0.1824,-0.8972 0.3867,-0.3867 0.1849,0.462 0.1622,1.014 -0.051,1.2267 -0.2127,0.2127 -0.364,-0.1654 -0.3362,-0.84 z m 1195.5201,-0.64 c 0.031,-0.7456 0.1824,-0.8972 0.3867,-0.3867 0.1848,0.462 0.1621,1.014 -0.051,1.2267 -0.2127,0.2127 -0.364,-0.1654 -0.3362,-0.84 z m -1194.8801,-8.96 c 0.031,-0.7456 0.1824,-0.8972 0.3867,-0.3867 0.1849,0.462 0.1622,1.014 -0.051,1.2267 -0.2127,0.2127 -0.364,-0.1654 -0.3362,-0.84 z m 1194.2401,0 c 0.031,-0.7456 0.1824,-0.8972 0.3866,-0.3867 0.1849,0.462 0.1622,1.014 -0.05,1.2267 -0.2127,0.2127 -0.364,-0.1654 -0.3362,-0.84 z m -0.64,-7.68 c 0.031,-0.7456 0.1824,-0.8972 0.3866,-0.3867 0.1849,0.462 0.1622,1.014 -0.051,1.2267 -0.2127,0.2127 -0.364,-0.1654 -0.3362,-0.84 z M 1839.24,921.16284 c 0.4621,-0.1849 1.0141,-0.16218 1.2267,0.0506 0.2127,0.21267 -0.1653,0.36397 -0.84,0.33619 -0.7456,-0.0307 -0.8972,-0.1824 -0.3867,-0.38669 z m 11.1722,-0.64634 c 0.6227,-0.16224 1.4867,-0.15161 1.92,0.0237 0.4334,0.1753 -0.076,0.30804 -1.1322,0.29504 -1.056,-0.0128 -1.4104,-0.15648 -0.7878,-0.31878 z m 30.72,0 c 0.6227,-0.16224 1.4867,-0.15161 1.92,0.0237 0.4334,0.1753 -0.076,0.30804 -1.1321,0.29504 -1.056,-0.0128 -1.4105,-0.15648 -0.7879,-0.31878 z M 1808.52,697.16283 c 0.4621,-0.18489 1.0141,-0.16217 1.2267,0.0506 0.2127,0.21268 -0.1653,0.36397 -0.84,0.3362 -0.7456,-0.0307 -0.8972,-0.1824 -0.3867,-0.38669 z m 7.04,-0.64 c 0.4621,-0.18489 1.0141,-0.16217 1.2267,0.0506 0.2127,0.21268 -0.1653,0.36397 -0.84,0.3362 -0.7456,-0.0307 -0.8972,-0.1824 -0.3867,-0.38669 z m 8.32,-0.64 c 0.4621,-0.18489 1.0141,-0.16217 1.2267,0.0506 0.2127,0.21268 -0.1653,0.36397 -0.84,0.3362 -0.7456,-0.0307 -0.8972,-0.1824 -0.3867,-0.38669 z m 84.4801,0 c 0.462,-0.18489 1.014,-0.16217 1.2266,0.0506 0.2127,0.21268 -0.1653,0.36397 -0.84,0.3362 -0.7456,-0.0307 -0.8972,-0.1824 -0.3866,-0.38669 z m -74.2801,-0.62668 c 0.44,-0.17754 1.16,-0.17754 1.6,0 0.44,0.17753 0.08,0.32281 -0.8,0.32281 -0.88,0 -1.24,-0.14528 -0.8,-0.32281 z m 63.0522,-0.0198 c 0.6227,-0.16224 1.4867,-0.15162 1.92,0.0237 0.4334,0.17529 -0.076,0.30803 -1.1321,0.29504 -1.056,-0.0128 -1.4105,-0.15648 -0.7879,-0.31879 z m -46.7234,-0.65575 c 0.9729,-0.14707 2.4129,-0.14317 3.2,0.009 0.7872,0.15187 -0.01,0.27226 -1.7688,0.26746 -1.76,-0.006 -2.404,-0.12909 -1.4312,-0.27623 z m 28.7913,0 c 0.968,-0.14662 2.552,-0.14662 3.52,0 0.968,0.14669 0.176,0.26663 -1.76,0.26663 -1.936,0 -2.728,-0.11994 -1.76,-0.26663 z" class="aw-theme-iconOutline" fill="#464646"/>
    </g>
  </g>
</svg>
